<svg xmlns="http://www.w3.org/2000/svg" xmlns:xlink="http://www.w3.org/1999/xlink" viewBox="0 0 210.8 47.05"><defs><style>.cls-1{isolation:isolate;}.cls-2{fill:url(#linear-gradient);}.cls-3,.cls-4{opacity:0.6;mix-blend-mode:lighten;}.cls-3{fill:url(#linear-gradient-2);}.cls-4{fill:#182738;}.cls-5{fill:url(#linear-gradient-3);}.cls-6{font-size:18.81px;fill:#eeca1e;font-family:Prompt-Regular, Prompt;}</style><linearGradient id="linear-gradient" x1="105.4" y1="56.94" x2="105.4" y2="14.13" gradientUnits="userSpaceOnUse"><stop offset="0" stop-color="#0c1728"/><stop offset="0.47" stop-color="#0b1525"/><stop offset="0.77" stop-color="#07101d"/><stop offset="1" stop-color="#020910"/></linearGradient><linearGradient id="linear-gradient-2" x1="105.4" y1="56.94" x2="105.4" y2="14.13" gradientUnits="userSpaceOnUse"><stop offset="0" stop-color="#b4edff"/><stop offset="0.1" stop-color="#a9e6fd" stop-opacity="0.94"/><stop offset="0.28" stop-color="#8cd5f9" stop-opacity="0.78"/><stop offset="0.54" stop-color="#5db8f1" stop-opacity="0.52"/><stop offset="0.86" stop-color="#1d92e7" stop-opacity="0.16"/><stop offset="1" stop-color="#0080e2" stop-opacity="0"/></linearGradient><linearGradient id="linear-gradient-3" x1="105.4" y1="56.94" x2="105.4" y2="14.13" gradientUnits="userSpaceOnUse"><stop offset="0" stop-color="#eddb7d"/><stop offset="0.05" stop-color="#cdb050"/><stop offset="0.13" stop-color="#9a6c0b"/><stop offset="0.16" stop-color="#a77d1d"/><stop offset="0.25" stop-color="#c5a646"/><stop offset="0.33" stop-color="#dbc364"/><stop offset="0.4" stop-color="#e8d576"/><stop offset="0.45" stop-color="#eddb7d"/><stop offset="0.52" stop-color="#e9d677"/><stop offset="0.61" stop-color="#ddc667"/><stop offset="0.71" stop-color="#caac4d"/><stop offset="0.81" stop-color="#af8828"/><stop offset="0.89" stop-color="#9a6c0b"/><stop offset="0.9" stop-color="#a77d1d"/><stop offset="0.93" stop-color="#c5a646"/><stop offset="0.96" stop-color="#dbc364"/><stop offset="0.98" stop-color="#e8d576"/><stop offset="1" stop-color="#eddb7d"/></linearGradient></defs><g class="cls-1"><g id="Layer_2" data-name="Layer 2"><g id="Layer_2-2" data-name="Layer 2"><path class="cls-2" d="M187,47H23.79A23.47,23.47,0,0,1,23.79.1H187A23.47,23.47,0,1,1,187,47Z"/><path class="cls-3" d="M187,47H23.79A23.47,23.47,0,0,1,23.79.1H187A23.47,23.47,0,1,1,187,47Z"/><path class="cls-4" d="M187.27,47.05H23.83C12.45,47.05,1.62,37.86.19,26.58A23.56,23.56,0,0,1,23.52,0H187c11.38,0,22.21,9.19,23.63,20.47A23.55,23.55,0,0,1,187.27,47.05Z"/><path class="cls-5" d="M187,47H23.79A23.47,23.47,0,0,1,23.79.1H187A23.47,23.47,0,1,1,187,47ZM23.79,2.34a21.23,21.23,0,0,0,0,42.45H187a21.23,21.23,0,1,0,0-42.45Z"/><text class="cls-6" transform="translate(67.1 30.7)">เข้าสู่ระบบ</text></g></g></g></svg>