<svg xmlns="http://www.w3.org/2000/svg" xmlns:xlink="http://www.w3.org/1999/xlink" viewBox="0 0 210.8 47.05"><defs><style>.cls-1{isolation:isolate;}.cls-2{fill:url(#linear-gradient);}.cls-3,.cls-4{opacity:0.6;mix-blend-mode:lighten;}.cls-3{fill:url(#linear-gradient-2);}.cls-4{fill:#182738;}.cls-5{fill:url(#linear-gradient-3);}.cls-6{fill:#eeca1e;}</style><linearGradient id="linear-gradient" x1="105.4" y1="56.94" x2="105.4" y2="14.13" gradientUnits="userSpaceOnUse"><stop offset="0" stop-color="#0c1728"/><stop offset="0.47" stop-color="#0b1525"/><stop offset="0.77" stop-color="#07101d"/><stop offset="1" stop-color="#020910"/></linearGradient><linearGradient id="linear-gradient-2" x1="105.4" y1="56.94" x2="105.4" y2="14.13" gradientUnits="userSpaceOnUse"><stop offset="0" stop-color="#b4edff"/><stop offset="0.1" stop-color="#a9e6fd" stop-opacity="0.94"/><stop offset="0.28" stop-color="#8cd5f9" stop-opacity="0.78"/><stop offset="0.54" stop-color="#5db8f1" stop-opacity="0.52"/><stop offset="0.86" stop-color="#1d92e7" stop-opacity="0.16"/><stop offset="1" stop-color="#0080e2" stop-opacity="0"/></linearGradient><linearGradient id="linear-gradient-3" x1="105.4" y1="56.94" x2="105.4" y2="14.13" gradientUnits="userSpaceOnUse"><stop offset="0" stop-color="#eddb7d"/><stop offset="0.05" stop-color="#cdb050"/><stop offset="0.13" stop-color="#9a6c0b"/><stop offset="0.16" stop-color="#a77d1d"/><stop offset="0.25" stop-color="#c5a646"/><stop offset="0.33" stop-color="#dbc364"/><stop offset="0.4" stop-color="#e8d576"/><stop offset="0.45" stop-color="#eddb7d"/><stop offset="0.52" stop-color="#e9d677"/><stop offset="0.61" stop-color="#ddc667"/><stop offset="0.71" stop-color="#caac4d"/><stop offset="0.81" stop-color="#af8828"/><stop offset="0.89" stop-color="#9a6c0b"/><stop offset="0.9" stop-color="#a77d1d"/><stop offset="0.93" stop-color="#c5a646"/><stop offset="0.96" stop-color="#dbc364"/><stop offset="0.98" stop-color="#e8d576"/><stop offset="1" stop-color="#eddb7d"/></linearGradient></defs><g class="cls-1"><g id="Layer_2" data-name="Layer 2"><g id="Layer_1-2" data-name="Layer 1"><path class="cls-2" d="M187,47H23.79A23.47,23.47,0,0,1,23.79.1H187A23.47,23.47,0,1,1,187,47Z"/><path class="cls-3" d="M187,47H23.79A23.47,23.47,0,0,1,23.79.1H187A23.47,23.47,0,1,1,187,47Z"/><path class="cls-4" d="M187.27,47.05H23.83C12.45,47.05,1.62,37.86.19,26.58A23.56,23.56,0,0,1,23.52,0H187c11.38,0,22.21,9.19,23.63,20.47A23.55,23.55,0,0,1,187.27,47.05Z"/><path class="cls-5" d="M187,47H23.79A23.47,23.47,0,0,1,23.79.1H187A23.47,23.47,0,1,1,187,47ZM23.79,2.34a21.23,21.23,0,0,0,0,42.45H187a21.23,21.23,0,1,0,0-42.45Z"/><path class="cls-6" d="M68.8,30.18a2.06,2.06,0,0,1-.48-1.46V20.63h1.92V28.2a.93.93,0,0,0,.21.7,1,1,0,0,0,.71.2h.68v1.6H70.2A1.8,1.8,0,0,1,68.8,30.18Z"/><path class="cls-6" d="M75.68,30.51a3.39,3.39,0,0,1-1.53-1.33,3.58,3.58,0,0,1-.54-2v-.64a2.64,2.64,0,0,1,.26-1.17,10.11,10.11,0,0,1,.77-1.22,5.7,5.7,0,0,0,.53-.78,1.3,1.3,0,0,0,.17-.59.63.63,0,0,0-.18-.51.93.93,0,0,0-.59-.15h-1V20.63h2a1.78,1.78,0,0,1,1.31.48,1.73,1.73,0,0,1,.48,1.27,2.27,2.27,0,0,1-.23,1,8.17,8.17,0,0,1-.68,1.12,8.64,8.64,0,0,0-.64,1.09,2,2,0,0,0-.2.9v.7a2.18,2.18,0,0,0,.63,1.68,2.61,2.61,0,0,0,1.87.6,2.46,2.46,0,0,0,1.84-.62,2.34,2.34,0,0,0,.61-1.72V20.63H82.4v6.19a4.07,4.07,0,0,1-1.15,3.05A4.45,4.45,0,0,1,78,31,5.5,5.5,0,0,1,75.68,30.51Z"/><path class="cls-6" d="M78.33,18a.54.54,0,0,0-.08-.32.43.43,0,0,0-.31-.09h-.85V16.19H78.5a1.16,1.16,0,0,1,.88.3,1,1,0,0,1,.27.72v.66h3.86v1.28H78.33Z"/><path class="cls-6" d="M88.36,24.19a2.61,2.61,0,0,0-.49-1.76,2.23,2.23,0,0,0-1.73-.55,5,5,0,0,0-2.26.52V20.9a5.24,5.24,0,0,1,1.18-.39,6.42,6.42,0,0,1,1.44-.16,3.66,3.66,0,0,1,2.84,1,4.22,4.22,0,0,1,.94,2.94V30.7H88.36Z"/><path class="cls-6" d="M93.32,30.14a2.93,2.93,0,0,1-1-2.38,3,3,0,0,1,1.1-2.42,4.51,4.51,0,0,1,3-.91,7.87,7.87,0,0,1,3.35.7v-.77a2.32,2.32,0,0,0-.71-1.89,3.62,3.62,0,0,0-2.34-.59,9.48,9.48,0,0,0-1.77.16,6.3,6.3,0,0,0-1.5.48V21A6.63,6.63,0,0,1,95,20.54a10.32,10.32,0,0,1,2-.19,5.89,5.89,0,0,1,2.83.62l1-1.09h2.12L101,22a3.92,3.92,0,0,1,.68,2.31V30.7H99.76V26.65A6.91,6.91,0,0,0,96.62,26a2.9,2.9,0,0,0-1.8.45,1.62,1.62,0,0,0-.57,1.35c0,1.15.73,1.72,2.2,1.72a3.47,3.47,0,0,0,1.18-.19v1.48A5.61,5.61,0,0,1,96,31,4,4,0,0,1,93.32,30.14Z"/><path class="cls-6" d="M97.79,35.31A1.58,1.58,0,0,1,97.14,34v-.51a.53.53,0,0,0-.07-.34.42.42,0,0,0-.32-.09h-.64V31.77h1.66a.87.87,0,0,1,.69.23,1.1,1.1,0,0,1,.19.73V33.8c0,.55.3.83.9.83s.89-.28.89-.83v-2h1.5v2.16a1.66,1.66,0,0,1-.61,1.35,2.62,2.62,0,0,1-1.72.52A3,3,0,0,1,97.79,35.31Z"/><path class="cls-6" d="M100.08,16H102v3.14h-1.9Z"/><path class="cls-6" d="M105.74,30.75a4.4,4.4,0,0,1-1.67-.69V28.52a6.89,6.89,0,0,0,1.78.74,7.21,7.21,0,0,0,1.85.25,4,4,0,0,0,1.79-.29,1,1,0,0,0,.54-1,1.17,1.17,0,0,0-.26-.79,2.18,2.18,0,0,0-.8-.53c-.36-.15-.92-.34-1.69-.57a6.86,6.86,0,0,1-2.46-1.19,2.37,2.37,0,0,1-.81-1.91,2.46,2.46,0,0,1,1.07-2.14,5.16,5.16,0,0,1,2.94-.74,7.5,7.5,0,0,1,1.85.22,5,5,0,0,1,1.48.57v1.58a5.76,5.76,0,0,0-1.47-.62,6.43,6.43,0,0,0-1.69-.22c-1.51,0-2.26.45-2.26,1.35a1.06,1.06,0,0,0,.31.81,2.38,2.38,0,0,0,.83.5c.34.13.92.31,1.74.55a8.49,8.49,0,0,1,1.88.77,2.56,2.56,0,0,1,1,1,3.08,3.08,0,0,1,.28,1.39,2.38,2.38,0,0,1-1,2,5.16,5.16,0,0,1-3.07.75A10.32,10.32,0,0,1,105.74,30.75Z"/><path class="cls-6" d="M113.94,24.21a1.72,1.72,0,0,1-.33-1.15V22h1.73v.71a.57.57,0,0,0,.13.43.7.7,0,0,0,.47.12h2.2v1.33h-3A1.53,1.53,0,0,1,113.94,24.21Zm0,5.13a1.69,1.69,0,0,1-.33-1.14V27.12h1.73v.72a.54.54,0,0,0,.13.42.7.7,0,0,0,.47.12h2.2v1.34h-3A1.5,1.5,0,0,1,113.94,29.34Z"/><path class="cls-6" d="M122.47,30.45A4,4,0,0,1,120.78,29a4.09,4.09,0,0,1-.59-2.18V20.63h1.92v6.14a2.65,2.65,0,0,0,.74,2,3.58,3.58,0,0,0,4.33,0,2.65,2.65,0,0,0,.74-2V20.63h1.92V26.8a4.09,4.09,0,0,1-.59,2.18,4,4,0,0,1-1.69,1.47,6.38,6.38,0,0,1-5.09,0Z"/><path class="cls-6" d="M134.54,30.45A4,4,0,0,1,132.86,29a4.09,4.09,0,0,1-.59-2.18V20.63h1.92v6.14a2.65,2.65,0,0,0,.74,2,3.58,3.58,0,0,0,4.33,0,2.65,2.65,0,0,0,.74-2V20.63h1.92V26.8a4.09,4.09,0,0,1-.59,2.18,4,4,0,0,1-1.69,1.47,5.62,5.62,0,0,1-2.54.53A5.71,5.71,0,0,1,134.54,30.45Z"/></g></g></g></svg>