<svg xmlns="http://www.w3.org/2000/svg" xmlns:xlink="http://www.w3.org/1999/xlink" viewBox="0 0 210.8 47.05"><defs><style>.cls-1{isolation:isolate;}.cls-2{fill:url(#linear-gradient);}.cls-3{opacity:0.6;mix-blend-mode:lighten;fill:url(#linear-gradient-2);}.cls-4{fill:url(#linear-gradient-3);}.cls-5{fill:url(#linear-gradient-4);}.cls-6{fill:#633b05;}</style><linearGradient id="linear-gradient" x1="105.4" y1="56.94" x2="105.4" y2="14.13" gradientUnits="userSpaceOnUse"><stop offset="0" stop-color="#0c1728"/><stop offset="0.47" stop-color="#0b1525"/><stop offset="0.77" stop-color="#07101d"/><stop offset="1" stop-color="#020910"/></linearGradient><linearGradient id="linear-gradient-2" x1="105.4" y1="56.94" x2="105.4" y2="14.13" gradientUnits="userSpaceOnUse"><stop offset="0" stop-color="#b4edff"/><stop offset="0.1" stop-color="#a9e6fd" stop-opacity="0.94"/><stop offset="0.28" stop-color="#8cd5f9" stop-opacity="0.78"/><stop offset="0.54" stop-color="#5db8f1" stop-opacity="0.52"/><stop offset="0.86" stop-color="#1d92e7" stop-opacity="0.16"/><stop offset="1" stop-color="#0080e2" stop-opacity="0"/></linearGradient><linearGradient id="linear-gradient-3" x1="105.4" y1="-2.25" x2="105.4" y2="49.96" gradientUnits="userSpaceOnUse"><stop offset="0" stop-color="#eddb7d"/><stop offset="0.05" stop-color="#cdb050"/><stop offset="0.13" stop-color="#9a6c0b"/><stop offset="0.16" stop-color="#a77d1d"/><stop offset="0.25" stop-color="#c5a646"/><stop offset="0.33" stop-color="#dbc364"/><stop offset="0.4" stop-color="#e8d576"/><stop offset="0.45" stop-color="#eddb7d"/><stop offset="0.52" stop-color="#e9d677"/><stop offset="0.61" stop-color="#ddc667"/><stop offset="0.71" stop-color="#caac4d"/><stop offset="0.81" stop-color="#af8828"/><stop offset="0.89" stop-color="#9a6c0b"/><stop offset="0.9" stop-color="#a77d1d"/><stop offset="0.93" stop-color="#c5a646"/><stop offset="0.96" stop-color="#dbc364"/><stop offset="0.98" stop-color="#e8d576"/><stop offset="1" stop-color="#eddb7d"/></linearGradient><linearGradient id="linear-gradient-4" x1="105.4" y1="56.94" x2="105.4" y2="14.13" xlink:href="#linear-gradient-3"/></defs><g class="cls-1"><g id="Layer_2" data-name="Layer 2"><g id="Layer_1-2" data-name="Layer 1"><path class="cls-2" d="M187,47H23.79A23.47,23.47,0,0,1,23.79.1H187A23.47,23.47,0,1,1,187,47Z"/><path class="cls-3" d="M187,47H23.79A23.47,23.47,0,0,1,23.79.1H187A23.47,23.47,0,1,1,187,47Z"/><path class="cls-4" d="M187.27,47.05H23.83C12.45,47.05,1.62,37.86.19,26.58A23.56,23.56,0,0,1,23.52,0H187c11.38,0,22.21,9.19,23.63,20.47A23.55,23.55,0,0,1,187.27,47.05Z"/><path class="cls-5" d="M187,47H23.79A23.47,23.47,0,0,1,23.79.1H187A23.47,23.47,0,1,1,187,47ZM23.79,2.34a21.23,21.23,0,0,0,0,42.45H187a21.23,21.23,0,1,0,0-42.45Z"/><path class="cls-6" d="M57.52,30.14a2.93,2.93,0,0,1-1-2.38,3,3,0,0,1,1.1-2.42,4.53,4.53,0,0,1,3-.91,7.84,7.84,0,0,1,3.35.7v-.77a2.32,2.32,0,0,0-.7-1.89,3.62,3.62,0,0,0-2.34-.59,9.32,9.32,0,0,0-1.77.16,6.38,6.38,0,0,0-1.51.48V21a6.63,6.63,0,0,1,1.59-.47,10.34,10.34,0,0,1,2-.19A5.83,5.83,0,0,1,64,21l1-1.09h2.13L65.21,22a3.91,3.91,0,0,1,.67,2.31V30.7H64V26.65A6.88,6.88,0,0,0,60.82,26a2.94,2.94,0,0,0-1.8.45,1.62,1.62,0,0,0-.57,1.35c0,1.15.73,1.72,2.2,1.72a3.58,3.58,0,0,0,1.19-.19v1.48a5.68,5.68,0,0,1-1.66.21A4,4,0,0,1,57.52,30.14Z"/><path class="cls-6" d="M72.1,30.57a5.06,5.06,0,0,1-1.67-1.23V30.7H68.59V20.63h1.92v7.11a3.45,3.45,0,0,0,3,1.74,2.68,2.68,0,0,0,1.85-.58A2.18,2.18,0,0,0,76,27.2V20.63H78v6.64a3.59,3.59,0,0,1-1,2.68,3.83,3.83,0,0,1-2.85,1A4.9,4.9,0,0,1,72.1,30.57Z"/><path class="cls-6" d="M73.23,18.74a1.72,1.72,0,0,1-.37-1.21v-1h1.73v.75a.61.61,0,0,0,.12.44.77.77,0,0,0,.47.11h4.44v1.3H74.4A1.51,1.51,0,0,1,73.23,18.74Z"/><path class="cls-6" d="M80.39,24.47a3.75,3.75,0,0,1,1.28-3,6.25,6.25,0,0,1,7,0,3.74,3.74,0,0,1,1.28,3V30.7H88V24.42a2.34,2.34,0,0,0-.75-1.91,3.87,3.87,0,0,0-4.23,0,2.34,2.34,0,0,0-.75,1.91v1.91a1.74,1.74,0,0,1,.77-.72,2.67,2.67,0,0,1,1.24-.27h1.5v1.58H84.17a1.84,1.84,0,0,0-1.86,1.82v2H80.39Z"/><path class="cls-6" d="M93.74,30.75a4.4,4.4,0,0,1-1.67-.69V28.52a6.89,6.89,0,0,0,1.78.74,7.21,7.21,0,0,0,1.85.25,4,4,0,0,0,1.79-.29,1,1,0,0,0,.54-1,1.13,1.13,0,0,0-.26-.79,2.18,2.18,0,0,0-.8-.53q-.54-.22-1.68-.57a6.84,6.84,0,0,1-2.47-1.19A2.37,2.37,0,0,1,92,23.23a2.45,2.45,0,0,1,1.08-2.14A5.1,5.1,0,0,1,96,20.35a7.5,7.5,0,0,1,1.85.22,5,5,0,0,1,1.48.57v1.58a5.76,5.76,0,0,0-1.47-.62,6.37,6.37,0,0,0-1.69-.22c-1.51,0-2.26.45-2.26,1.35a1.1,1.1,0,0,0,.31.81,2.48,2.48,0,0,0,.83.5c.35.13.93.31,1.74.55a8.49,8.49,0,0,1,1.88.77,2.56,2.56,0,0,1,1,1,3.08,3.08,0,0,1,.28,1.39,2.36,2.36,0,0,1-1,2,5.16,5.16,0,0,1-3.07.75A10.32,10.32,0,0,1,93.74,30.75Z"/><path class="cls-6" d="M102.6,30.14a2.93,2.93,0,0,1-1-2.38,3,3,0,0,1,1.1-2.42,4.51,4.51,0,0,1,3-.91,7.87,7.87,0,0,1,3.35.7v-.77a2.32,2.32,0,0,0-.71-1.89,3.62,3.62,0,0,0-2.34-.59,9.48,9.48,0,0,0-1.77.16,6.3,6.3,0,0,0-1.5.48V21a6.63,6.63,0,0,1,1.59-.47,10.24,10.24,0,0,1,2-.19,5.89,5.89,0,0,1,2.83.62l1-1.09h2.12L110.28,22a3.92,3.92,0,0,1,.68,2.31V30.7H109V26.65A6.91,6.91,0,0,0,105.9,26a2.9,2.9,0,0,0-1.8.45,1.62,1.62,0,0,0-.57,1.35c0,1.15.73,1.72,2.2,1.72a3.47,3.47,0,0,0,1.18-.19v1.48a5.61,5.61,0,0,1-1.65.21A4,4,0,0,1,102.6,30.14Z"/><path class="cls-6" d="M117.18,30.57a5,5,0,0,1-1.67-1.23V30.7h-1.84V20.63h1.92v7.11a3.43,3.43,0,0,0,3,1.74,2.69,2.69,0,0,0,1.86-.58,2.18,2.18,0,0,0,.63-1.7V20.63H123v6.64A3.62,3.62,0,0,1,122,30a3.86,3.86,0,0,1-2.86,1A4.85,4.85,0,0,1,117.18,30.57Z"/><path class="cls-6" d="M129,24.19a2.61,2.61,0,0,0-.49-1.76,2.23,2.23,0,0,0-1.73-.55,5,5,0,0,0-2.26.52V20.9a5.24,5.24,0,0,1,1.18-.39,6.42,6.42,0,0,1,1.44-.16,3.66,3.66,0,0,1,2.84,1,4.17,4.17,0,0,1,.94,2.94V30.7H129Z"/><path class="cls-6" d="M135.19,30.51a3.52,3.52,0,0,1-2.13-3.29v-.64a2.59,2.59,0,0,1,.29-1.2,7.68,7.68,0,0,1,.77-1.21,6.13,6.13,0,0,0,.51-.79,1.17,1.17,0,0,0,.16-.56.66.66,0,0,0-.17-.51.94.94,0,0,0-.6-.15H133V20.63h2a1.75,1.75,0,0,1,1.3.48,1.73,1.73,0,0,1,.48,1.27,2.26,2.26,0,0,1-.22,1,9.32,9.32,0,0,1-.68,1.12,9,9,0,0,0-.65,1.09,2.12,2.12,0,0,0-.2.9v.7a2.13,2.13,0,0,0,.68,1.67,2.69,2.69,0,0,0,1.88.61,2.46,2.46,0,0,0,2.71-2.75,3.15,3.15,0,0,0-.56-2A2,2,0,0,0,138,24V23l2-2.64h2.07L140,23.15a3.12,3.12,0,0,1,1.66,1.33,4.41,4.41,0,0,1,.52,2.25A4.36,4.36,0,0,1,141.6,29,3.81,3.81,0,0,1,140,30.46a5.36,5.36,0,0,1-2.43.52A5.6,5.6,0,0,1,135.19,30.51Z"/><path class="cls-6" d="M133.72,17.85h8.13v1.3h-8.13Z"/><path class="cls-6" d="M144.88,24.43l-.94-1.52A6.8,6.8,0,0,1,146.21,21a6.7,6.7,0,0,1,3-.65,5.14,5.14,0,0,1,3.46,1,3.54,3.54,0,0,1,1.21,2.87V30.7H152V24.4a2.42,2.42,0,0,0-.69-1.91,3,3,0,0,0-2.06-.61,4.85,4.85,0,0,0-1.82.31,3.78,3.78,0,0,0-1.43,1l.81,1.26V30.7h-1.92Z"/></g></g></g></svg>