<svg xmlns="http://www.w3.org/2000/svg" viewBox="0 0 31.96 31.96"><defs><style>.cls-1{fill:#b1b1b1;}</style></defs><g id="Layer_2" data-name="Layer 2"><g id="Layer_1-2" data-name="Layer 1"><path class="cls-1" d="M16,32A16,16,0,1,1,32,16,16,16,0,0,1,16,32ZM16,2.59A13.39,13.39,0,1,0,29.36,16,13.41,13.41,0,0,0,16,2.59Z"/><path class="cls-1" d="M21.66,8H10.3a2.6,2.6,0,0,0-2.61,2.6V22a2.61,2.61,0,0,0,2.61,2.61H21.66A2.61,2.61,0,0,0,24.27,22V10.61A2.6,2.6,0,0,0,21.66,8ZM19.9,9.92H22a.36.36,0,0,1,.36.36v2.09a.36.36,0,0,1-.36.36H19.91a.36.36,0,0,1-.36-.35V10.29A.37.37,0,0,1,19.9,9.92Zm-6.46,4.95a2.46,2.46,0,0,1,.17-.27,2.9,2.9,0,0,1,4.73,0,2.53,2.53,0,0,1,.18.27,2.88,2.88,0,0,1,.38,1.43,2.92,2.92,0,0,1-5.84,0A2.88,2.88,0,0,1,13.44,14.87Zm9.21,6.51A1.59,1.59,0,0,1,21.06,23H10.89A1.59,1.59,0,0,1,9.3,21.38V14.6h2.48a3.57,3.57,0,0,0-.16.46,4.22,4.22,0,0,0-.17,1.24,4.53,4.53,0,0,0,9.06,0,4.58,4.58,0,0,0-.17-1.24c-.05-.16-.1-.31-.16-.46h2.47Z"/></g></g></svg>