<svg xmlns="http://www.w3.org/2000/svg" viewBox="0 0 31.96 31.96"><defs><style>.cls-1{fill:#b1b1b1;}</style></defs><g id="Layer_2" data-name="Layer 2"><g id="Layer_1-2" data-name="Layer 1"><path class="cls-1" d="M16,32A16,16,0,1,1,32,16,16,16,0,0,1,16,32ZM16,2.59A13.39,13.39,0,1,0,29.36,16,13.41,13.41,0,0,0,16,2.59Z"/><path class="cls-1" d="M21.93,10.84a10,10,0,0,0-6-2c-.72.1-1.44.13-2.14.28a8.55,8.55,0,0,0-5.14,3,5.8,5.8,0,0,0-1.33,4.63,6.37,6.37,0,0,0,2.46,4.15,9.16,9.16,0,0,0,4.65,2c.71.1.89.32.86,1,0,.1,0,.2,0,.3,0,.28-.09.56-.11.84s.15.47.45.38a5,5,0,0,0,.85-.37,30.63,30.63,0,0,0,4-2.71,14.26,14.26,0,0,0,2.88-2.82,5.71,5.71,0,0,0,1.1-4.81A6.51,6.51,0,0,0,21.93,10.84Zm-9.61,7.27H10.43c-.21,0-.29-.08-.29-.3,0-1.16,0-2.32,0-3.49,0-.22.09-.29.3-.29.65,0,.63-.1.62.62v2.55h1.5c.3,0,.32,0,.32.33C12.88,18.14,13,18.11,12.32,18.11Zm2-3.46v3.14c0,.3,0,.32-.33.32-.66,0-.59.06-.59-.59V16.07c0-.57,0-1.14,0-1.71,0-.24.08-.33.32-.32C14.41,14.05,14.34,14,14.34,14.65Zm3.86,3.47a.79.79,0,0,1-.83-.4c-.4-.61-.86-1.18-1.29-1.76a.51.51,0,0,0-.2-.18,2.28,2.28,0,0,0,0,.26c0,.59,0,1.19,0,1.78,0,.23-.09.3-.3.3-.73,0-.6,0-.6-.58,0-1.07,0-2.13,0-3.2,0-.22.08-.29.3-.3a.81.81,0,0,1,.85.41c.38.58.81,1.12,1.22,1.67.06.09.14.18.21.27l.07,0v-.89c0-.39,0-.78,0-1.16,0-.18.07-.27.28-.27.71,0,.63-.08.63.62,0,1.05,0,2.09,0,3.14C18.52,18.05,18.43,18.1,18.2,18.12Zm3,0c-.59,0-1.19,0-1.78,0-.24,0-.33-.07-.32-.32,0-.57,0-1.15,0-1.73s0-1.16,0-1.74c0-.21.07-.29.29-.29.71,0,1.42,0,2.14,0,.22,0,.29.08.28.29,0,.71.07.63-.6.63h-1c-.17,0-.25,0-.23.23v.22c0,.17.06.23.21.23h1.34c.19,0,.27.07.26.26,0,.78.06.63-.61.64h-1c-.16,0-.24,0-.22.22v0c0,.42,0,.42.39.42h1.18c.18,0,.24.07.24.23C21.85,18.23,21.92,18.1,21.24,18.11Z"/></g></g></svg>