<svg xmlns="http://www.w3.org/2000/svg" xmlns:xlink="http://www.w3.org/1999/xlink" viewBox="0 0 420.82 153.71"><defs><style>.cls-1{isolation:isolate;}.cls-2{fill:url(#linear-gradient);}.cls-3{fill:url(#linear-gradient-2);}.cls-4{fill:url(#linear-gradient-3);}.cls-5{fill:url(#linear-gradient-4);}.cls-6{fill:url(#linear-gradient-5);}.cls-7{fill:url(#linear-gradient-6);}.cls-8{fill:url(#Unbenannter_Verlauf_193);}.cls-9{fill:url(#Unbenannter_Verlauf_193-2);}.cls-10{fill:url(#Unbenannter_Verlauf_193-3);}.cls-11{fill:url(#Unbenannter_Verlauf_193-4);}.cls-12{fill:url(#Unbenannter_Verlauf_193-5);}.cls-13{fill:url(#Unbenannter_Verlauf_193-6);}.cls-14{fill:url(#Unbenannter_Verlauf_193-7);}.cls-15{fill:url(#linear-gradient-7);}.cls-16{fill:url(#linear-gradient-8);}.cls-17{fill:url(#linear-gradient-9);}.cls-18{fill:url(#linear-gradient-10);}.cls-19{fill:url(#linear-gradient-11);}.cls-20{fill:url(#linear-gradient-12);}.cls-21{fill:url(#linear-gradient-13);}.cls-22{fill:url(#linear-gradient-14);}.cls-23{fill:url(#linear-gradient-15);}.cls-24{fill:url(#linear-gradient-16);}.cls-25{fill:url(#linear-gradient-17);}.cls-26,.cls-27,.cls-28,.cls-29,.cls-30,.cls-31,.cls-32,.cls-33,.cls-34,.cls-35,.cls-36,.cls-37,.cls-38,.cls-39,.cls-41,.cls-42,.cls-44,.cls-45,.cls-47,.cls-48,.cls-50,.cls-51,.cls-53,.cls-54,.cls-55,.cls-56,.cls-57,.cls-58{mix-blend-mode:screen;}.cls-26{fill:url(#Degradado_sin_nombre_12);}.cls-27{fill:url(#Degradado_sin_nombre_12-2);}.cls-28{fill:url(#Degradado_sin_nombre_12-3);}.cls-29{fill:url(#Degradado_sin_nombre_12-4);}.cls-30{fill:url(#Degradado_sin_nombre_12-5);}.cls-31{fill:url(#Degradado_sin_nombre_12-6);}.cls-32{fill:url(#Degradado_sin_nombre_12-7);}.cls-33{fill:url(#Degradado_sin_nombre_12-8);}.cls-34{fill:url(#Degradado_sin_nombre_12-9);}.cls-35{fill:url(#Degradado_sin_nombre_12-10);}.cls-36{fill:url(#Degradado_sin_nombre_12-11);}.cls-37{fill:url(#Degradado_sin_nombre_12-12);}.cls-38{fill:url(#Degradado_sin_nombre_41);}.cls-39{fill:url(#Degradado_sin_nombre_40);}.cls-40,.cls-43,.cls-46,.cls-49,.cls-52{mix-blend-mode:color-dodge;}.cls-40{fill:url(#Degradado_sin_nombre_38);}.cls-41{fill:url(#Degradado_sin_nombre_41-2);}.cls-42{fill:url(#Degradado_sin_nombre_40-2);}.cls-43{fill:url(#Degradado_sin_nombre_38-2);}.cls-44{fill:url(#Degradado_sin_nombre_41-3);}.cls-45{fill:url(#Degradado_sin_nombre_40-3);}.cls-46{fill:url(#Degradado_sin_nombre_38-3);}.cls-47{fill:url(#Degradado_sin_nombre_41-4);}.cls-48{fill:url(#Degradado_sin_nombre_40-4);}.cls-49{fill:url(#Degradado_sin_nombre_38-4);}.cls-50{fill:url(#Degradado_sin_nombre_41-5);}.cls-51{fill:url(#Degradado_sin_nombre_40-5);}.cls-52{fill:url(#Degradado_sin_nombre_38-5);}.cls-53{fill:url(#Degradado_sin_nombre_12-13);}.cls-54{fill:url(#Degradado_sin_nombre_12-14);}.cls-55{fill:url(#Degradado_sin_nombre_12-15);}.cls-56{fill:url(#Degradado_sin_nombre_12-16);}.cls-57{fill:url(#Degradado_sin_nombre_12-17);}.cls-58{fill:url(#Degradado_sin_nombre_12-18);}</style><linearGradient id="linear-gradient" x1="75.52" y1="84.03" x2="75.52" y2="46.79" gradientUnits="userSpaceOnUse"><stop offset="0" stop-color="#eddb7d"/><stop offset="0.05" stop-color="#cdb050"/><stop offset="0.13" stop-color="#9a6c0b"/><stop offset="0.16" stop-color="#a77d1d"/><stop offset="0.25" stop-color="#c5a646"/><stop offset="0.33" stop-color="#dbc364"/><stop offset="0.4" stop-color="#e8d576"/><stop offset="0.45" stop-color="#eddb7d"/><stop offset="0.52" stop-color="#e9d677"/><stop offset="0.61" stop-color="#ddc667"/><stop offset="0.71" stop-color="#caac4d"/><stop offset="0.81" stop-color="#af8828"/><stop offset="0.89" stop-color="#9a6c0b"/><stop offset="0.9" stop-color="#a77d1d"/><stop offset="0.93" stop-color="#c5a646"/><stop offset="0.96" stop-color="#dbc364"/><stop offset="0.98" stop-color="#e8d576"/><stop offset="1" stop-color="#eddb7d"/></linearGradient><linearGradient id="linear-gradient-2" x1="123.61" y1="84.03" x2="123.61" y2="46.79" xlink:href="#linear-gradient"/><linearGradient id="linear-gradient-3" x1="173.66" y1="84.03" x2="173.66" y2="46.79" xlink:href="#linear-gradient"/><linearGradient id="linear-gradient-4" x1="246.75" y1="84.03" x2="246.75" y2="46.79" xlink:href="#linear-gradient"/><linearGradient id="linear-gradient-5" x1="325.06" y1="84.03" x2="325.06" y2="46.79" xlink:href="#linear-gradient"/><linearGradient id="linear-gradient-6" x1="377.38" y1="84.03" x2="377.38" y2="46.79" xlink:href="#linear-gradient"/><linearGradient id="Unbenannter_Verlauf_193" x1="75.53" y1="93.15" x2="75.53" y2="13.88" gradientUnits="userSpaceOnUse"><stop offset="0.07" stop-color="#01327e"/><stop offset="0.19" stop-color="#055997"/><stop offset="0.23" stop-color="#0873a8"/><stop offset="0.31" stop-color="#0eabcc"/><stop offset="0.35" stop-color="#11c1da"/><stop offset="0.5" stop-color="#0664a1"/><stop offset="0.61" stop-color="#044276"/><stop offset="0.64" stop-color="#04467a"/><stop offset="0.68" stop-color="#065385"/><stop offset="0.72" stop-color="#086797"/><stop offset="0.76" stop-color="#0b84b0"/><stop offset="0.79" stop-color="#0d9dc6"/><stop offset="1" stop-color="#02255c"/></linearGradient><linearGradient id="Unbenannter_Verlauf_193-2" x1="123.61" y1="93.15" x2="123.61" y2="13.88" xlink:href="#Unbenannter_Verlauf_193"/><linearGradient id="Unbenannter_Verlauf_193-3" x1="173.61" y1="93.15" x2="173.61" y2="13.88" xlink:href="#Unbenannter_Verlauf_193"/><linearGradient id="Unbenannter_Verlauf_193-4" x1="226.29" y1="93.15" x2="226.29" y2="13.88" xlink:href="#Unbenannter_Verlauf_193"/><linearGradient id="Unbenannter_Verlauf_193-5" x1="272.67" y1="93.15" x2="272.67" y2="13.88" xlink:href="#Unbenannter_Verlauf_193"/><linearGradient id="Unbenannter_Verlauf_193-6" x1="325.06" y1="93.15" x2="325.06" y2="13.88" xlink:href="#Unbenannter_Verlauf_193"/><linearGradient id="Unbenannter_Verlauf_193-7" x1="377.41" y1="93.15" x2="377.41" y2="13.88" xlink:href="#Unbenannter_Verlauf_193"/><linearGradient id="linear-gradient-7" x1="110.59" y1="141" x2="110.59" y2="106.59" xlink:href="#linear-gradient"/><linearGradient id="linear-gradient-8" x1="140.4" y1="141" x2="140.4" y2="106.59" xlink:href="#linear-gradient"/><linearGradient id="linear-gradient-9" x1="170.32" y1="141" x2="170.32" y2="106.59" xlink:href="#linear-gradient"/><linearGradient id="linear-gradient-10" x1="204.59" y1="141" x2="204.59" y2="106.59" xlink:href="#linear-gradient"/><linearGradient id="linear-gradient-11" x1="236.32" y1="141" x2="236.32" y2="106.59" xlink:href="#linear-gradient"/><linearGradient id="linear-gradient-12" x1="262.95" y1="141" x2="262.95" y2="106.59" xlink:href="#linear-gradient"/><linearGradient id="linear-gradient-13" x1="287.87" y1="141" x2="287.87" y2="106.59" xlink:href="#linear-gradient"/><linearGradient id="linear-gradient-14" x1="310.43" y1="141" x2="310.43" y2="106.59" xlink:href="#linear-gradient"/><linearGradient id="linear-gradient-15" x1="329.99" y1="141" x2="329.99" y2="106.59" xlink:href="#linear-gradient"/><linearGradient id="linear-gradient-16" x1="352.81" y1="141" x2="352.81" y2="106.59" xlink:href="#linear-gradient"/><linearGradient id="linear-gradient-17" x1="380.08" y1="141" x2="380.08" y2="106.59" xlink:href="#linear-gradient"/><radialGradient id="Degradado_sin_nombre_12" cx="75.97" cy="-1009.01" r="15.9" gradientTransform="translate(177.33 1107.41) rotate(-11.15)" gradientUnits="userSpaceOnUse"><stop offset="0" stop-color="#fff"/><stop offset="0.01" stop-color="#fffbf6" stop-opacity="0.96"/><stop offset="0.05" stop-color="#ffe5c8" stop-opacity="0.78"/><stop offset="0.09" stop-color="#ffd09d" stop-opacity="0.61"/><stop offset="0.14" stop-color="#ffbe77" stop-opacity="0.47"/><stop offset="0.2" stop-color="#ffae57" stop-opacity="0.34"/><stop offset="0.25" stop-color="#ffa13b" stop-opacity="0.23"/><stop offset="0.32" stop-color="#ff9725" stop-opacity="0.15"/><stop offset="0.4" stop-color="#ff8f14" stop-opacity="0.08"/><stop offset="0.49" stop-color="#ff8909" stop-opacity="0.03"/><stop offset="0.63" stop-color="#ff8602" stop-opacity="0.01"/><stop offset="1" stop-color="#ff8500" stop-opacity="0"/></radialGradient><radialGradient id="Degradado_sin_nombre_12-2" cx="1165.31" cy="-1741.02" r="15.9" gradientTransform="matrix(2.12, 0, 0, 0.21, -2417.59, 464.34)" xlink:href="#Degradado_sin_nombre_12"/><radialGradient id="Degradado_sin_nombre_12-3" cx="2224.79" cy="-10728.91" r="15.9" gradientTransform="matrix(0, -2.12, 0.21, 0, 2285.26, 4826.79)" xlink:href="#Degradado_sin_nombre_12"/><radialGradient id="Degradado_sin_nombre_12-4" cx="126.17" cy="-934.65" r="15.9" gradientTransform="translate(203.24 1038.38) rotate(-11.15)" xlink:href="#Degradado_sin_nombre_12"/><radialGradient id="Degradado_sin_nombre_12-5" cx="1188.95" cy="-1383" r="15.9" gradientTransform="matrix(2.12, 0, 0, 0.21, -2378.25, 384.2)" xlink:href="#Degradado_sin_nombre_12"/><radialGradient id="Degradado_sin_nombre_12-6" cx="2189.77" cy="-10487.22" r="15.9" gradientTransform="matrix(0, -2.12, 0.21, 0, 2324.6, 4746.64)" xlink:href="#Degradado_sin_nombre_12"/><radialGradient id="Degradado_sin_nombre_12-7" cx="187.1" cy="-823.94" r="15.9" gradientTransform="matrix(0.98, -0.19, 0.19, 0.98, 248.39, 944.85)" xlink:href="#Degradado_sin_nombre_12"/><radialGradient id="Degradado_sin_nombre_12-8" cx="1217.64" cy="-850" r="15.9" gradientTransform="matrix(2.12, 0, 0, 0.21, -2312.85, 276.81)" xlink:href="#Degradado_sin_nombre_12"/><radialGradient id="Degradado_sin_nombre_12-9" cx="2137.63" cy="-10193.89" r="15.9" gradientTransform="matrix(0, -2.12, 0.21, 0, 2390, 4639.26)" xlink:href="#Degradado_sin_nombre_12"/><radialGradient id="Degradado_sin_nombre_12-10" cx="229.57" cy="-759.27" r="15.9" gradientTransform="matrix(0.98, -0.19, 0.19, 0.98, 271.48, 885.61)" xlink:href="#Degradado_sin_nombre_12"/><radialGradient id="Degradado_sin_nombre_12-11" cx="1237.65" cy="-538.64" r="15.9" gradientTransform="matrix(2.12, 0, 0, 0.21, -2278.06, 208.14)" xlink:href="#Degradado_sin_nombre_12"/><radialGradient id="Degradado_sin_nombre_12-12" cx="2107.17" cy="-9989.41" r="15.9" gradientTransform="matrix(0, -2.12, 0.21, 0, 2424.79, 4570.59)" xlink:href="#Degradado_sin_nombre_12"/><radialGradient id="Degradado_sin_nombre_41" cx="-811.06" cy="6839.61" r="60.22" gradientTransform="translate(1933.84 -706.58) scale(1.98 0.12)" gradientUnits="userSpaceOnUse"><stop offset="0" stop-color="#ffff87"/><stop offset="0.02" stop-color="#f2f280" stop-opacity="0.95"/><stop offset="0.09" stop-color="#c0c066" stop-opacity="0.75"/><stop offset="0.17" stop-color="#92924d" stop-opacity="0.57"/><stop offset="0.25" stop-color="#6b6b39" stop-opacity="0.42"/><stop offset="0.34" stop-color="#4a4a27" stop-opacity="0.29"/><stop offset="0.44" stop-color="#2f2f19" stop-opacity="0.18"/><stop offset="0.54" stop-color="#1a1a0e" stop-opacity="0.1"/><stop offset="0.65" stop-color="#0b0b06" stop-opacity="0.04"/><stop offset="0.79" stop-color="#030301" stop-opacity="0.01"/><stop offset="1" stop-opacity="0"/></radialGradient><radialGradient id="Degradado_sin_nombre_40" cx="-12823.99" cy="6696.46" r="328.42" gradientTransform="translate(4331.97 -704.16) scale(0.31 0.12)" gradientUnits="userSpaceOnUse"><stop offset="0" stop-color="#ffa800"/><stop offset="0.01" stop-color="#faa500" stop-opacity="0.98"/><stop offset="0.09" stop-color="#c68300" stop-opacity="0.78"/><stop offset="0.17" stop-color="#976400" stop-opacity="0.59"/><stop offset="0.26" stop-color="#6e4900" stop-opacity="0.43"/><stop offset="0.35" stop-color="#4c3200" stop-opacity="0.3"/><stop offset="0.45" stop-color="#302000" stop-opacity="0.19"/><stop offset="0.55" stop-color="#1b1200" stop-opacity="0.11"/><stop offset="0.67" stop-color="#0c0800" stop-opacity="0.05"/><stop offset="0.8" stop-color="#030200" stop-opacity="0.01"/><stop offset="1" stop-opacity="0"/></radialGradient><radialGradient id="Degradado_sin_nombre_38" cx="-12823.99" cy="91802.24" r="329.83" gradientTransform="translate(4331.97 -581.04) scale(0.31 0.01)" gradientUnits="userSpaceOnUse"><stop offset="0" stop-color="#ffffe2"/><stop offset="0.01" stop-color="#fafade" stop-opacity="0.98"/><stop offset="0.09" stop-color="#c6c6b0" stop-opacity="0.78"/><stop offset="0.17" stop-color="#979786" stop-opacity="0.59"/><stop offset="0.26" stop-color="#6e6e62" stop-opacity="0.43"/><stop offset="0.35" stop-color="#4c4c44" stop-opacity="0.3"/><stop offset="0.45" stop-color="#30302b" stop-opacity="0.19"/><stop offset="0.55" stop-color="#1b1b18" stop-opacity="0.11"/><stop offset="0.67" stop-color="#0c0c0a" stop-opacity="0.05"/><stop offset="0.8" stop-color="#030302" stop-opacity="0.01"/><stop offset="1" stop-opacity="0"/></radialGradient><radialGradient id="Degradado_sin_nombre_41-2" cx="-859.74" cy="6615.13" r="31.29" xlink:href="#Degradado_sin_nombre_41"/><radialGradient id="Degradado_sin_nombre_40-2" cx="-13132.71" cy="6476.04" r="170.63" xlink:href="#Degradado_sin_nombre_40"/><radialGradient id="Degradado_sin_nombre_38-2" cx="-13132.71" cy="88251.42" r="171.36" xlink:href="#Degradado_sin_nombre_38"/><radialGradient id="Degradado_sin_nombre_41-3" cx="-898.14" cy="6839.61" r="31.29" xlink:href="#Degradado_sin_nombre_41"/><radialGradient id="Degradado_sin_nombre_40-3" cx="-13376.24" cy="6696.46" r="170.63" xlink:href="#Degradado_sin_nombre_40"/><radialGradient id="Degradado_sin_nombre_38-3" cx="-13376.24" cy="91802.24" r="171.36" xlink:href="#Degradado_sin_nombre_38"/><radialGradient id="Degradado_sin_nombre_41-4" cx="-807.57" cy="6475.79" r="55.9" xlink:href="#Degradado_sin_nombre_41"/><radialGradient id="Degradado_sin_nombre_40-4" cx="-12801.9" cy="6339.21" r="304.89" xlink:href="#Degradado_sin_nombre_40"/><radialGradient id="Degradado_sin_nombre_38-4" cx="-12801.9" cy="86047.24" r="306.2" xlink:href="#Degradado_sin_nombre_38"/><radialGradient id="Degradado_sin_nombre_41-5" cx="-933.23" cy="6072.26" r="55.9" xlink:href="#Degradado_sin_nombre_41"/><radialGradient id="Degradado_sin_nombre_40-5" cx="-13598.78" cy="5942.97" r="304.89" xlink:href="#Degradado_sin_nombre_40"/><radialGradient id="Degradado_sin_nombre_38-5" cx="-13598.78" cy="79664.13" r="306.2" xlink:href="#Degradado_sin_nombre_38"/><radialGradient id="Degradado_sin_nombre_12-13" cx="312.05" cy="-897.72" r="9.89" gradientTransform="translate(267.22 969.71) rotate(-11.15)" xlink:href="#Degradado_sin_nombre_12"/><radialGradient id="Degradado_sin_nombre_12-14" cx="1276.49" cy="-1205.25" r="9.89" gradientTransform="matrix(2.12, 0, 0, 0.21, -2310.64, 278.91)" xlink:href="#Degradado_sin_nombre_12"/><radialGradient id="Degradado_sin_nombre_12-15" cx="2172.38" cy="-9592.34" r="9.89" gradientTransform="matrix(0, -2.12, 0.21, 0, 2392.21, 4641.35)" xlink:href="#Degradado_sin_nombre_12"/><radialGradient id="Degradado_sin_nombre_12-16" cx="151.84" cy="-969" r="9.89" gradientTransform="matrix(0.98, -0.19, 0.19, 0.98, 262.84, 1008.83)" xlink:href="#Degradado_sin_nombre_12"/><radialGradient id="Degradado_sin_nombre_12-17" cx="1201.04" cy="-1548.39" r="9.89" gradientTransform="matrix(2.12, 0, 0, 0.21, -2325.78, 350.34)" xlink:href="#Degradado_sin_nombre_12"/><radialGradient id="Degradado_sin_nombre_12-18" cx="2205.95" cy="-10363.66" r="9.89" gradientTransform="matrix(0, -2.12, 0.21, 0, 2377.07, 4712.78)" xlink:href="#Degradado_sin_nombre_12"/></defs><g class="cls-1"><g id="Layer_2" data-name="Layer 2"><g id="Layer_1-2" data-name="Layer 1"><path class="cls-2" d="M99.17,34.33l.35-.7a8,8,0,0,0,0-5.09l-.42-.7h-.82c-1.22,0-2.53.05-4.19.11-2.66.09-6.3.22-11.72.22-6.65,0-10.46-.13-13.24-.23-1.65-.05-3-.1-4.3-.1h-.6l-.42.43c-1,1-1,4.38-.29,5.52l.37.55.64.08a54.08,54.08,0,0,1,6.09,1c1.48.45,2,1.47,2.25,4.12.32,8.49.54,42.83.21,59.16-.2,6-.51,8-1.4,9.14a2.78,2.78,0,0,1-2.38,1c-2.11,0-7.31-2.51-12.37-6l-1.27-.87-.79,1.33a47.9,47.9,0,0,0-3.66,10.16l0,2.65.22.35c2.06,3.26,7.4,3.61,9.61,3.61,8.58,0,19-7.27,25.31-17.69,3.11-5.19,4.74-11.36,5.11-19.41.43-8.33.48-18.87.53-29.06,0-5.22,0-10.16.12-14.7,0-3.14.63-3.44,1.6-3.89a23.18,23.18,0,0,1,4.76-1Z"/><path class="cls-3" d="M150.41,72.21l-.73-.12c-5.11-.81-5.15-.93-7.57-7-1.71-4.48-4.89-13.46-7.69-21.37-1.44-4.08-2.76-7.82-3.66-10.29l-1.63-5.58-1.17.08c-1.15.08-2.22.15-3.74.15-1.1,0-2.38-.05-3.91-.15l-1.37-.09-.16,1.36a26.1,26.1,0,0,1-1.46,5.08c-1.9,5.46-8.14,22.58-12.35,32.53h0c-1.69,4.06-2.3,4.5-7.27,5.28l-.56.09-.35.44c-.78,1-.55,3.52-.11,4.26l.42.7h.82c1.36,0,2.84-.06,4.28-.12s3-.11,4.41-.11c2.59,0,4.72.08,6.43.14,1.25.05,2.33.09,3.27.09H117l.43-.58c.52-.7,1-3.39.23-4.35l-.35-.46-.57-.09c-1.41-.24-2.5-.46-3.72-.76-.9-.18-.93-.34-1-1.17,0-1,1.46-5.06,2.4-7.76l.35-1c1.1,0,3,0,5.73,0l2.16,0c1.18,0,2.39,0,3.25,0a100.78,100.78,0,0,1,3.34,10v0c0-.08,0-.16-.06-.16l-.11.06a13.84,13.84,0,0,1-3.25.86l-.54.11-.33.44c-.75,1-.34,3.58-.22,3.94l.33,1h1c1.2,0,2.3,0,3.62-.08,1.92-.07,4.31-.15,8.15-.15s6.47.09,8.46.16c1.16,0,2.06.07,2.77.07h.6l.43-.42c.79-.8,1-3.49.58-4.28ZM123.61,54c-.92,0-2.15,0-3.54,0h-2.73c.44-1.3.94-2.83,1.46-4.43s1.11-3.37,1.66-5C121.64,48,122.94,51.91,123.61,54Z"/><path class="cls-4" d="M194.26,61.66l-1-.27-.54.94a32.17,32.17,0,0,1-5.57,7.35c-2,1.8-4.67,2-6.49,2-11.47,0-15.56-10.46-15.56-20.25,0-12.11,4.38-18.79,12.32-18.79a16.11,16.11,0,0,1,8.28,1.81c2.42,1.46,2.91,3.7,3.69,8.22l.08.29a1.89,1.89,0,0,0,1.73,1.11s2.77.27,3.66-1.07l.24-.37v-.43a87.28,87.28,0,0,1,1.2-12.57l.32-1.65-1.67-.07c-1.23-.05-2.85-.23-4.71-.44a101,101,0,0,0-11-.79c-6.39,0-11.71,1.11-16.25,3.38-8.41,4.12-13.42,12.4-13.42,22.14,0,17.1,10.26,26.52,28.9,26.52a36.54,36.54,0,0,0,11.74-1.84l.43-.13.18-.12c2.6-1.77,5.89-8.48,6.81-11.55l.17-.59-.3-.53A5.93,5.93,0,0,0,194.26,61.66Z"/><path class="cls-5" d="M288.92,30.82c-2.6-1.93-6.28-2.9-10.93-2.9s-7.62,0-11.53.1l-3.63.05c-2.32,0-4.66-.07-6.73-.14-1.52-.05-2.85-.09-3.81-.09h-.72l-.43.58c-.63.83-.61,3.2-.25,4l.33.78.84.09a31.24,31.24,0,0,1,3.6.58c.87.2,1.27.29,1.35,2.92.15,2.34.15,6.41.15,14.52,0,7.57-.06,13.41-.16,17.34-.08,2.38-.42,2.57-1,2.72-1,.24-2,.39-3.14.55l-.61.09a17.18,17.18,0,0,1-3.58-.67,9,9,0,0,1-2.78-2,140.76,140.76,0,0,1-16.14-20.19c1.74-2,4.09-4.76,6.38-7.47l3.39-4c3-3.5,4.51-3.75,8.74-4.42l.46-.08.33-.33c.93-.93,1-3.75.08-4.65l-.44-.45-1.18,0c-2.13.07-4.34.14-9.64.21-2.2,0-3.93-.07-5.46-.13-1.28-.05-2.49-.1-3.77-.1H228l-.43.42c-1,1-.66,3.57-.38,4.21l.33.78.84.09a16.7,16.7,0,0,1,4.1.75l.09,0,.29.12c-.06.61-.57,1.89-2.56,4.57-4.66,6.23-8,9.84-11.24,11.94,0-4.85.09-11.1.15-14.34.07-2.16.43-2.27,1-2.45a13.93,13.93,0,0,1,2.68-.56l1.21-.18.33-.67a6.74,6.74,0,0,0,0-3.8l-.36-.91h-1c-1.56,0-3.22.05-5,.11-1.92.06-3.91.12-5.94.12-4.35,0-7.26-.1-9.19-.17-1,0-1.73-.06-2.28-.06h-.59l-.43.43c-.89.89-.69,2.95-.68,3A2.33,2.33,0,0,0,200,33.1l.26.18.31,0a29.08,29.08,0,0,1,4,.8c.16,0,.65.19.74,2.2.07,2.59.07,7.84.07,15.13.08,6.44,0,13.56-.08,16.56s-.38,3.16-1.2,3.4l-4.57.88-.33.56a5.57,5.57,0,0,0,0,4l.42.7h.82c.77,0,1.73,0,2.95-.07,2.07-.07,4.89-.16,8.82-.16s6.61.08,9,.15l2.62.08h.5l.4-.3c1-.72,1.32-3.58.76-4.52l-.34-.55-.63-.12-1.27-.23a24.76,24.76,0,0,1-2.74-.58c-.7-.21-1.14-.46-1.2-2.13h0c-.12-2.86-.15-6.35-.15-11.4A165.48,165.48,0,0,0,230.35,73a14.21,14.21,0,0,0,4.8,3.94c1.59.62,6.43.85,10.69.85,2.56,0,4.9-.08,6.21-.21h.17c2,0,4.06-.06,6.06-.12s4.06-.11,6.09-.11c2.3,0,4.87.07,7.13.13,2,0,3.86.1,5.33.1h.6l.42-.42a4.58,4.58,0,0,0,.53-4.38l-.37-.62L276.86,72a23.23,23.23,0,0,1-4.34-.73l-.12,0c-.75-.18-1.12-.49-1.2-2.52-.15-2.7-.17-7.57-.17-11.8a4.48,4.48,0,0,0,1.64,2l.21.12.23,0a19.49,19.49,0,0,0,3.72.33,20.62,20.62,0,0,0,10.51-2.89,15.45,15.45,0,0,0,7.4-13.7C294.74,35.93,291.08,32.33,288.92,30.82ZM271.27,53.5a2.15,2.15,0,0,0-.23.28V51.06c0-10,0-14.63.14-16.9a6.06,6.06,0,0,1,1.1-.12c5.1,0,8.18,3.92,8.25,10.48,0,5.3-1.62,7-3,7.94a5.47,5.47,0,0,1-3.06.77,11.57,11.57,0,0,1-1.81-.11l-.79-.2Z"/><path class="cls-6" d="M325.83,26.69c-7.92,0-15,2.72-19.88,7.59-6.25,5.52-7.56,13-7.56,18.39,0,7.19,2.5,14,6.85,18.61l0,0c4.92,5,11.39,7.43,19.8,7.43,9.06,0,16.79-3.67,21.77-10.34,3.17-4.17,4.91-10,4.91-16.41C351.74,39.39,343.73,26.69,325.83,26.69Zm6.39,43.63,0,0a7.09,7.09,0,0,1-4.83,2,10.53,10.53,0,0,1-6.9-2.56c-5-4.38-6.81-13-6.81-19.61,0-8,1.74-13.32,5.22-15.87a8.38,8.38,0,0,1,4.95-1.46,9.07,9.07,0,0,1,6.35,2.41c3.94,3.49,6.29,10.71,6.29,19.3C336.47,62.12,335,67.7,332.22,70.32Z"/><path class="cls-7" d="M399.83,27.15h-.22l-.2.06a28.16,28.16,0,0,1-8.27.86H363.91a21.09,21.09,0,0,1-6.62-.92,1.92,1.92,0,0,0-1.73.33,1.88,1.88,0,0,0-.87,1.4c-.21,3.26-1,9.74-1.59,12.9l-.08.43.17.41c.29.68,1,1.13,2.17,1.45,2.09.55,2.74.07,2.95-.09l.36-.27.14-.43A45.34,45.34,0,0,1,361.49,37c.93-1.78,1.62-2,2.62-2,1.39-.12,4.45-.14,6.2-.06v5.33c0,10.49,0,21.33-.23,27.74-.21,3-.59,3.12-1.73,3.38l-.1,0a34.52,34.52,0,0,1-4.44.69l-.64.08-.32.25a2.66,2.66,0,0,0-.82,2.06,3.77,3.77,0,0,0,.7,2.71l.42.42h.6c1,0,2.14,0,3.6-.08,2.36-.06,5.59-.15,9.94-.15,2.94,0,5.53.07,7.81.14,1.77.05,3.3.09,4.65.09h.6l.43-.43c1-1,.85-3.94.15-4.65l-.34-.34-.48-.07-1.56-.21a16.23,16.23,0,0,1-3.28-.63c-.61-.23-.91-.63-1-2.26-.18-3.9-.17-17.28-.16-28V34.84c1.84-.05,5.22-.06,6.79.11,1,.1,1.32.24,1.79,1.44A32.19,32.19,0,0,1,394.17,43l.07.48.34.34c.76.75,3.95.78,4.89-.16l.38-.37,0-.54a95.5,95.5,0,0,1,1.81-13.16l0-.33A2.11,2.11,0,0,0,399.83,27.15Z"/><path class="cls-8" d="M64.78,29.29c3.59,0,7,.32,17.54.32,8.72,0,12.75-.32,15.91-.32a7.25,7.25,0,0,1,0,3.7,24,24,0,0,0-5.12,1.09c-1.64.76-2.51,1.63-2.51,5.23-.22,13.4,0,31.16-.65,43.68-.33,7.09-1.64,13.3-4.91,18.75-6.21,10.24-16.23,17-24.07,17-3.6,0-7.08-.87-8.39-2.94v-2a45.59,45.59,0,0,1,3.49-9.7c4.46,3.05,10.34,6.21,13.18,6.21a4.22,4.22,0,0,0,3.48-1.52c1.2-1.53,1.53-3.71,1.75-10,.32-16.23.11-50.55-.22-59.26C74,36.91,73.5,34.84,71,34.08A53,53,0,0,0,64.67,33C64.24,32.34,64.34,29.72,64.78,29.29Z"/><path class="cls-9" d="M106.3,67.37c4.23-10,10.46-27.08,12.38-32.62a27,27,0,0,0,1.54-5.39c1.15.08,2.62.16,4,.16,1.62,0,2.77-.08,3.85-.16l1.3,4.46c2.7,7.47,8.78,24.93,11.39,31.78,2.54,6.38,2.92,7,8.69,7.92a5.16,5.16,0,0,1-.3,2.62c-1.93,0-5.31-.24-11.24-.24-6.46,0-8.84.24-11.77.24a6.08,6.08,0,0,1,0-2.62,13.33,13.33,0,0,0,3.77-1.08,1.32,1.32,0,0,0,.77-1.46,103.63,103.63,0,0,0-3.54-10.54c-.15-.15-.46-.54-.77-.54-1.23-.07-3.84,0-5.84,0-3.08,0-5.08,0-6.16.08a1.44,1.44,0,0,0-.84.69c-1.31,3.77-2.93,8.23-2.93,9.54a2.31,2.31,0,0,0,2.16,2.54c1.23.31,2.38.54,3.77.77a5.12,5.12,0,0,1-.23,2.62c-2.23,0-5.23-.24-9.7-.24-2.84,0-6,.24-8.69.24a4.34,4.34,0,0,1,0-2.62C103.3,72.67,104.37,72,106.3,67.37Zm14-26.78c-1.54,4.31-3.54,10.7-4.77,14.24-.08.3,0,.54.15.54.85.07,2.31.07,4.39.07,2.53,0,4.38,0,5.15-.07.08,0,.23-.24.23-.39-.77-2.38-3.31-10.16-4.84-14.39C120.53,40.59,120.3,40.52,120.3,40.59Z"/><path class="cls-10" d="M186.38,33.21a17.71,17.71,0,0,0-9-2c-8.15,0-13.77,6.31-13.77,20.23,0,10.46,4.62,21.7,17,21.7a10.78,10.78,0,0,0,7.46-2.39,33.56,33.56,0,0,0,5.84-7.69,4.66,4.66,0,0,1,2.31,1.61c-.92,3.08-4.08,9.31-6.23,10.77a35.46,35.46,0,0,1-11.54,1.85C161.22,77.29,151,68.9,151,52.21c0-8.62,4.15-16.69,12.61-20.85a34.48,34.48,0,0,1,15.62-3.23c6,0,12.16,1.08,15.62,1.23a89,89,0,0,0-1.23,12.85c-.31.46-2.7.62-2.85.23C190,38,189.45,35.05,186.38,33.21Z"/><path class="cls-11" d="M217.76,69.21c.07,2,.69,3,2.23,3.46,1,.31,2.54.54,4.15.85a4.39,4.39,0,0,1-.38,2.62c-3.23-.08-6.16-.24-11.62-.24-6.23,0-9.69.24-11.77.24a4.76,4.76,0,0,1,0-2.54l4-.77c1.85-.54,2.23-1.54,2.31-4.77.07-3,.15-10.08.07-16.62,0-7.38,0-12.54-.07-15.15-.08-1.77-.46-3.16-1.77-3.54a31.65,31.65,0,0,0-4.16-.85c-.46-.31-.3-2.31,0-2.61,1.62,0,4.93.23,11.47.23,3.92,0,7.69-.23,10.92-.23a6,6,0,0,1,0,2.61,17.57,17.57,0,0,0-3.38.69c-1.54.47-1.93,1.54-2,3.77-.08,3.93-.16,11.54-.16,16.31C217.6,60.6,217.6,65.44,217.76,69.21ZM228.6,29.29c2.77,0,5.16.23,9.23.23,5.77-.08,7.85-.16,10.24-.23A3.48,3.48,0,0,1,248,31.9c-4.31.69-6.31,1-9.62,4.92-3.54,4.16-7.77,9.24-10.31,12.08v.39c3.54,6.08,12.39,16.84,16.78,21.15a11.09,11.09,0,0,0,3.3,2.31,19.64,19.64,0,0,0,4.16.77,4.43,4.43,0,0,1-.31,2.62c-3.62.38-14.16.3-16.31-.54a12.91,12.91,0,0,1-4.23-3.54A171.5,171.5,0,0,1,219.3,55.52a6.5,6.5,0,0,0-1.24-1.31c0-.23.08-1.38.31-1.38,3.46-1.85,7.16-5.23,13.08-13.16,2-2.69,2.85-4.39,2.85-5.54,0-.54-.31-1.07-1.31-1.38a17.91,17.91,0,0,0-4.46-.85A4.32,4.32,0,0,1,228.6,29.29Z"/><path class="cls-12" d="M272,55.37a1.42,1.42,0,0,1,.3-.85,11.83,11.83,0,0,0,2.16.15,6.81,6.81,0,0,0,3.84-1c2.39-1.54,3.7-4.23,3.7-9.15-.08-7.08-3.62-11.93-9.7-11.93a5.64,5.64,0,0,0-2.07.39,2,2,0,0,0-.46,1.07c-.16,2.31-.16,6.93-.16,17,0,4-.08,13.54.16,17.77.07,1.84.38,3.38,2.3,3.84a25.07,25.07,0,0,0,5.08.85,3.56,3.56,0,0,1-.31,2.62c-3.15,0-8.15-.24-12.46-.24-4.08,0-8.16.24-12.15.24a5,5,0,0,1,0-2.62c1.53-.23,2.76-.38,4.07-.69,1.85-.46,2.08-2,2.16-4.08.07-3,.15-8.08.15-17.39,0-8.07,0-12.23-.15-14.61-.08-2.54-.47-3.77-2.47-4.23a33.84,33.84,0,0,0-3.76-.62,4.94,4.94,0,0,1,.07-2.61c2.23,0,6.47.23,10.54.23,5.77-.08,9.31-.16,15.16-.16,2.3,0,6.84.23,10.07,2.62,2.85,2,5.24,5.54,5.24,10.85a14,14,0,0,1-6.7,12.46A19,19,0,0,1,276.83,58a17.87,17.87,0,0,1-3.46-.31A4.27,4.27,0,0,1,272,55.37Z"/><path class="cls-13" d="M306.29,70.29c-4.69-5-6.46-11.77-6.46-17.62,0-6.15,1.85-12.69,7.08-17.31,4.38-4.38,10.85-7.23,18.92-7.23,16,0,24.47,10.93,24.47,23.85,0,5.69-1.47,11.39-4.62,15.54-5,6.69-12.62,9.77-20.62,9.77C316.45,77.29,310.52,74.6,306.29,70.29Zm26.93,1.08c3.54-3.39,4.69-10.24,4.69-16.78,0-7.77-2-16.15-6.77-20.38a10.53,10.53,0,0,0-7.31-2.77A9.7,9.7,0,0,0,318,33.21c-4.31,3.15-5.77,9.69-5.77,17,0,7,1.92,16,7.31,20.69a12,12,0,0,0,7.84,2.93A8.59,8.59,0,0,0,333.22,71.37Z"/><path class="cls-14" d="M389.75,76.14c-3.07,0-7.23-.24-12.46-.24-7,0-11,.24-13.54.24a3.15,3.15,0,0,1,0-2.62,36.45,36.45,0,0,0,4.92-.77c2-.46,2.62-1.31,2.85-4.69.31-7.77.23-21.93.23-33.93,0-.15-.15-.61-.38-.61a56.86,56.86,0,0,0-7.39,0c-1.61.07-2.69.69-3.77,2.77a45.93,45.93,0,0,0-2.77,6.54c-.3.23-2.69-.24-2.92-.77.62-3.16,1.38-9.62,1.62-13.08,0-.16.46-.54.69-.46a22.84,22.84,0,0,0,7.08,1h27.23a29.34,29.34,0,0,0,8.69-.93c.23,0,.46.46.46.62a96.15,96.15,0,0,0-1.84,13.38,5.18,5.18,0,0,1-2.85.16,33.64,33.64,0,0,0-1.54-6.85,3.11,3.11,0,0,0-3-2.38,71.85,71.85,0,0,0-8.08-.08.7.7,0,0,0-.3.61c0,10.93-.08,30.16.15,35,.08,1.46.31,2.92,1.92,3.54a27.54,27.54,0,0,0,5.16.92A3.83,3.83,0,0,1,389.75,76.14Z"/><path class="cls-15" d="M110.19,110.35a.81.81,0,0,1,.18-.5,7,7,0,0,0,1.27.09,4,4,0,0,0,2.26-.59c1.4-.9,2.17-2.49,2.17-5.38,0-4.16-2.13-7-5.7-7a3.4,3.4,0,0,0-1.22.23,1.2,1.2,0,0,0-.27.63c-.09,1.36-.09,4.07-.09,10,0,2.35,0,8,.09,10.45.05,1.08.23,2,1.36,2.26a14.76,14.76,0,0,0,3,.49,2.06,2.06,0,0,1-.18,1.54c-1.85,0-4.79-.13-7.32-.13s-4.8.13-7.15.13a3.08,3.08,0,0,1,0-1.54c.91-.13,1.63-.22,2.4-.4,1.08-.27,1.22-1.18,1.27-2.4,0-1.76.09-4.75.09-10.22,0-4.74,0-7.18-.09-8.59s-.28-2.21-1.45-2.48a19.48,19.48,0,0,0-2.22-.36A2.92,2.92,0,0,1,98.62,95c1.31,0,3.8.13,6.19.13,3.39,0,5.47-.09,8.91-.09a10.35,10.35,0,0,1,5.92,1.54,7.47,7.47,0,0,1,3.08,6.38,8.22,8.22,0,0,1-3.94,7.32,11.17,11.17,0,0,1-5.74,1.58,10.79,10.79,0,0,1-2-.18A2.58,2.58,0,0,1,110.19,110.35Z"/><path class="cls-16" d="M125.74,95c1.09,0,4.61.13,6.33.13,3.44,0,5.92-.13,8.59-.13,5.56,0,8.59,2.85,8.59,6.92,0,3.52-2.3,5.65-5.29,6.82a.48.48,0,0,0,0,.36,59.59,59.59,0,0,0,7.19,9.91c1.58,1.53,1.85,1.67,4.15,1.94a3.51,3.51,0,0,1-.31,1.63c-2.67.22-7.28,0-9.13-.82a6.81,6.81,0,0,1-2.27-1.9,82.43,82.43,0,0,1-5.37-8.45,1.53,1.53,0,0,0-1.32-.81h-1.08c-.09,0-.18.18-.18.27,0,2.8,0,5.6.09,7.55,0,1.31.31,1.85,1.26,2.12a17.33,17.33,0,0,0,2.4.45c.23,0,.18,1.45-.09,1.54-1,0-3.17-.13-6.74-.13-3.75,0-5.78.13-6.73.13a2.05,2.05,0,0,1-.05-1.54,16.7,16.7,0,0,0,2.08-.36c1-.22,1.27-.81,1.31-2.21s.14-7.51.14-10.31c0-4.39,0-7.14-.09-9.13-.05-1.22-.45-1.86-1.27-2a19.11,19.11,0,0,0-2.3-.4C125.43,96.28,125.52,95.11,125.74,95ZM136,97.14a1.06,1.06,0,0,0-.31.68c-.09,1-.09,4.34-.09,10.31,0,.18.13.36.27.36a12,12,0,0,0,4.88-.54c1.18-.59,2-1.76,2-4.61,0-3.76-2.08-6.38-5.56-6.38A4,4,0,0,0,136,97.14Z"/><path class="cls-17" d="M159.28,119.12a15.23,15.23,0,0,1-3.79-10.36,13.2,13.2,0,0,1,4.16-10.17,15.35,15.35,0,0,1,11.12-4.25c9.4,0,14.38,6.42,14.38,14a15.21,15.21,0,0,1-2.72,9.13,14.71,14.71,0,0,1-12.11,5.74C165.25,123.23,161.77,121.65,159.28,119.12Zm15.83.63c2.08-2,2.76-6,2.76-9.86,0-4.56-1.18-9.49-4-12a6.25,6.25,0,0,0-4.3-1.63,5.79,5.79,0,0,0-3.43,1c-2.53,1.86-3.39,5.7-3.39,10,0,4.11,1.13,9.4,4.29,12.16a7.07,7.07,0,0,0,4.61,1.72A5,5,0,0,0,175.11,119.75Z"/><path class="cls-18" d="M217.06,121.51a40.77,40.77,0,0,1-10.53,1.72c-10.18,0-16.23-4.66-16.23-14.6,0-5.93,3-10.54,8.13-12.66a21.6,21.6,0,0,1,9.14-1.63c4.11,0,7.28.86,9.35,1a42.35,42.35,0,0,0-.76,8,2.55,2.55,0,0,1-1.81.18c-.36-3-.91-4.56-2-5.47a9.41,9.41,0,0,0-6.1-1.81c-4.34,0-8.5,2.63-8.5,11.71,0,7.87,3.8,13.43,9.63,13.43a3.16,3.16,0,0,0,1.81-.5,2,2,0,0,0,.63-1.35,30.4,30.4,0,0,0,.09-4.61c-.09-1.5-.27-2.26-1.58-2.63a27.52,27.52,0,0,0-2.89-.45,2.82,2.82,0,0,1,0-1.63c1.31,0,4.47.14,7.68.14s4.75-.09,5.7-.14a3.45,3.45,0,0,1,0,1.63,11.26,11.26,0,0,0-1.36.32c-.86.27-1.13.54-1.13,2.58,0,1.26,0,4.06.05,4.65.09.41.27.63,1,1.09A2.87,2.87,0,0,1,217.06,121.51Z"/><path class="cls-19" d="M221.67,95c1.08,0,4.61.13,6.33.13,3.43,0,5.92-.13,8.59-.13,5.56,0,8.59,2.85,8.59,6.92,0,3.52-2.31,5.65-5.29,6.82a.48.48,0,0,0,0,.36A60.17,60.17,0,0,0,247,119c1.58,1.53,1.86,1.67,4.16,1.94a3.4,3.4,0,0,1-.32,1.63c-2.66.22-7.27,0-9.13-.82a6.75,6.75,0,0,1-2.26-1.9,82.52,82.52,0,0,1-5.38-8.45,1.53,1.53,0,0,0-1.31-.81h-1.08c-.1,0-.19.18-.19.27,0,2.8,0,5.6.09,7.55,0,1.31.32,1.85,1.27,2.12a16.76,16.76,0,0,0,2.4.45c.22,0,.18,1.45-.09,1.54-1,0-3.17-.13-6.74-.13-3.75,0-5.79.13-6.74.13-.18-.18-.27-1.35,0-1.54a17,17,0,0,0,2.08-.36c.95-.22,1.26-.81,1.31-2.21s.13-7.51.13-10.31c0-4.39,0-7.14-.09-9.13,0-1.22-.45-1.86-1.26-2a19.32,19.32,0,0,0-2.31-.4C221.35,96.28,221.44,95.11,221.67,95Zm10.26,2.12a1.08,1.08,0,0,0-.32.68c-.09,1-.09,4.34-.09,10.31,0,.18.14.36.28.36a12,12,0,0,0,4.88-.54c1.17-.59,2-1.76,2-4.61,0-3.76-2.08-6.38-5.56-6.38A4,4,0,0,0,231.93,97.14Z"/><path class="cls-20" d="M251.32,95c1.77,0,4.61.13,6.83.13h9.09a48.38,48.38,0,0,0,5.87-.27.2.2,0,0,1,.14.18,53,53,0,0,0-.63,6.83,3.3,3.3,0,0,1-1.72.14,11.83,11.83,0,0,0-.86-3.35,2.08,2.08,0,0,0-1.85-1.17,58.12,58.12,0,0,0-6.29-.05c-.22.05-.45.59-.45.81,0,2.9,0,5.7,0,8.77a.4.4,0,0,0,.32.37c1.17,0,4.29,0,5.74,0,.95,0,1.35-.45,1.63-1.58.13-.45.22-1,.36-1.63a3.6,3.6,0,0,1,1.81.09c-.05,1.09-.23,2.94-.23,4.39,0,1.22.05,3.3.09,4.56a3.88,3.88,0,0,1-1.76,0l-.45-1.86a1.84,1.84,0,0,0-1.54-1.31c-.82-.09-4.3-.09-5.65-.09-.14,0-.32.32-.32.41v8a1.49,1.49,0,0,0,.95,1.49,36.38,36.38,0,0,0,5.61.32c2,0,2.66-.19,3.66-1.36a16.93,16.93,0,0,0,2.39-4.16,3.56,3.56,0,0,1,1.68.59,39.54,39.54,0,0,1-2.08,6.64c-.18.41-.41.73-2.35.73-3.8,0-8.14-.18-12.93-.18-2.4,0-5.7.13-8.14.13a4.41,4.41,0,0,1,0-1.54,29.78,29.78,0,0,0,3.34-.58c.82-.23,1.27-.73,1.27-2.17.14-2.58.14-5.7.14-10.9,0-3.34,0-6.87-.14-8.5-.09-1.26-.41-1.63-1.27-1.9a11.83,11.83,0,0,0-2.35-.4A2.24,2.24,0,0,1,251.32,95Z"/><path class="cls-21" d="M283.65,120.16a7.33,7.33,0,0,0,4.11,1.22,3.47,3.47,0,0,0,3.8-3.53c0-2.13-.86-3.48-5.07-6.06-3.84-2.39-7.09-4.47-7.09-9.27,0-5.33,4.43-8.18,9.63-8.18,3.48,0,5.33.59,7.55.77a55.54,55.54,0,0,0-.77,6.69,2.36,2.36,0,0,1-1.59.09c-.4-2.76-1-4.07-2.07-4.84a5,5,0,0,0-3.4-1,3.68,3.68,0,0,0-3.88,3.8c0,1.9.94,3.12,2.8,4.39s3.07,1.9,5,3.07c3.34,2.08,4.83,4.07,4.83,7.33,0,4.79-3.84,8.63-10.85,8.63a16.92,16.92,0,0,1-7-1.45c-.5-.72-1.41-5.69-1.45-7.28a2.2,2.2,0,0,1,1.58-.49C280.8,117.13,282,118.89,283.65,120.16Z"/><path class="cls-22" d="M306.2,120.16a7.38,7.38,0,0,0,4.12,1.22,3.47,3.47,0,0,0,3.79-3.53c0-2.13-.85-3.48-5.06-6.06-3.84-2.39-7.1-4.47-7.1-9.27,0-5.33,4.43-8.18,9.63-8.18,3.48,0,5.34.59,7.55.77a57.67,57.67,0,0,0-.77,6.69,2.33,2.33,0,0,1-1.58.09c-.4-2.76-1-4.07-2.08-4.84a5,5,0,0,0-3.39-1,3.69,3.69,0,0,0-3.89,3.8c0,1.9.95,3.12,2.81,4.39s3.07,1.9,5,3.07c3.35,2.08,4.84,4.07,4.84,7.33,0,4.79-3.84,8.63-10.85,8.63a17,17,0,0,1-7-1.45c-.49-.72-1.4-5.69-1.44-7.28a2.19,2.19,0,0,1,1.58-.49C303.35,117.13,304.53,118.89,306.2,120.16Z"/><path class="cls-23" d="M323,95c1.63,0,3.61.13,6.74.13,4.38,0,5.92-.13,6.87-.13a2.61,2.61,0,0,1,0,1.54,17,17,0,0,0-2.35.45c-1,.36-1,1-1.09,2.3s0,4.61,0,8.5c0,5.47,0,8.77,0,10.54.05.81.09,1.85,1.36,2.17.54.18,1.67.31,2.57.49a2.5,2.5,0,0,1-.22,1.54c-1.86,0-3.57-.13-6.78-.13-4.07,0-5.43.13-7.15.13a1.88,1.88,0,0,1,0-1.54c.95-.13,1.59-.27,2.08-.36,1.18-.27,1.45-.63,1.58-2.44.1-1.58.1-6.78.1-10.44,0-4.79,0-7-.14-8.91A1.79,1.79,0,0,0,325.46,97a16.35,16.35,0,0,0-2.49-.45A2.6,2.6,0,0,1,323,95Z"/><path class="cls-24" d="M337.3,95c1.49,0,4.48.13,6.87.13,2.94,0,6-.13,6.92-.13.23.13.23,1.35.09,1.54a7.17,7.17,0,0,0-2.39.72c-.28.23-.37.63-.18,1.22.9,2.62,5.38,13.79,6.42,16.19a.21.21,0,0,0,.27,0c1.22-2.58,4.83-11.94,5.65-14.83.49-1.5.36-2.4-.86-2.76a19.44,19.44,0,0,0-2.85-.54,2.61,2.61,0,0,1,.18-1.59c.77,0,2.35.18,5.61.18,2.94,0,4.34-.13,5.38-.13a2.55,2.55,0,0,1,0,1.54,8,8,0,0,0-2.35.63c-1.17.63-1.72,1.63-2.62,3.66-1.45,3.35-4.11,9.77-6.42,15.42a67,67,0,0,0-2.35,6.51,28.63,28.63,0,0,0-3.93,0c-.64-2-1.36-4-2.31-6.33C346,110.21,344,105,342.64,101.76c-1.45-3.4-2.08-4.34-3.57-4.75a12.46,12.46,0,0,0-1.95-.41A2.57,2.57,0,0,1,337.3,95Z"/><path class="cls-25" d="M368.45,95c1.76,0,4.61.13,6.83.13h9.08a48.45,48.45,0,0,0,5.88-.27.2.2,0,0,1,.14.18,54.55,54.55,0,0,0-.64,6.83A3.27,3.27,0,0,1,388,102a12.18,12.18,0,0,0-.86-3.35,2.08,2.08,0,0,0-1.86-1.17,57.94,57.94,0,0,0-6.28-.05c-.23.05-.45.59-.45.81-.05,2.9,0,5.7,0,8.77a.4.4,0,0,0,.31.37c1.18,0,4.3,0,5.74,0,.95,0,1.36-.45,1.63-1.58.14-.45.23-1,.36-1.63a3.59,3.59,0,0,1,1.81.09c0,1.09-.22,2.94-.22,4.39,0,1.22,0,3.3.09,4.56a3.92,3.92,0,0,1-1.77,0l-.45-1.86a1.81,1.81,0,0,0-1.54-1.31c-.81-.09-4.29-.09-5.65-.09-.13,0-.31.32-.31.41v8a1.48,1.48,0,0,0,.95,1.49,36.32,36.32,0,0,0,5.6.32c2,0,2.67-.19,3.66-1.36a17.26,17.26,0,0,0,2.4-4.16,3.53,3.53,0,0,1,1.67.59,37.77,37.77,0,0,1-2.08,6.64c-.18.41-.4.73-2.35.73-3.8,0-8.14-.18-12.93-.18-2.39,0-5.69.13-8.14.13a4.41,4.41,0,0,1,0-1.54,29.64,29.64,0,0,0,3.35-.58c.81-.23,1.27-.73,1.27-2.17.13-2.58.13-5.7.13-10.9,0-3.34,0-6.87-.13-8.5-.09-1.26-.41-1.63-1.27-1.9a12,12,0,0,0-2.35-.4A2.24,2.24,0,0,1,368.45,95Z"/><circle class="cls-26" cx="56.81" cy="102.74" r="15.9" transform="translate(-57.79 77.26) rotate(-48.52)"/><ellipse class="cls-27" cx="56.81" cy="102.74" rx="33.77" ry="3.3" transform="translate(-60.55 99.89) rotate(-59.67)"/><ellipse class="cls-28" cx="56.81" cy="102.74" rx="3.3" ry="33.77" transform="translate(-60.55 99.89) rotate(-59.67)"/><circle class="cls-29" cx="146.35" cy="96.96" r="15.9" transform="translate(-23.23 142.39) rotate(-48.52)"/><ellipse class="cls-30" cx="146.35" cy="96.96" rx="33.77" ry="3.3" transform="translate(-11.25 174.31) rotate(-59.67)"/><ellipse class="cls-31" cx="146.35" cy="96.96" rx="3.3" ry="33.77" transform="translate(-11.25 174.31) rotate(-59.67)"/><circle class="cls-32" cx="272.67" cy="100.28" r="15.9" transform="translate(16.94 238.15) rotate(-48.52)"/><ellipse class="cls-33" cx="272.67" cy="100.28" rx="33.77" ry="3.3" transform="translate(48.42 284.99) rotate(-59.67)"/><ellipse class="cls-34" cx="272.67" cy="100.28" rx="3.3" ry="33.77" transform="translate(48.42 284.99) rotate(-59.67)"/><circle class="cls-35" cx="349.94" cy="96.28" r="15.9" transform="translate(46.03 294.7) rotate(-48.52)"/><ellipse class="cls-36" cx="349.94" cy="96.28" rx="33.77" ry="3.3" transform="translate(90.12 349.7) rotate(-59.67)"/><ellipse class="cls-37" cx="349.94" cy="96.28" rx="3.3" ry="33.77" transform="translate(90.12 349.7) rotate(-59.67)"/><ellipse class="cls-38" cx="327.92" cy="122.22" rx="92.64" ry="5.67"/><ellipse class="cls-39" cx="327.92" cy="122.22" rx="79.69" ry="31.49"/><ellipse class="cls-40" cx="327.92" cy="122.22" rx="79.69" ry="1.97"/><ellipse class="cls-41" cx="231.52" cy="95.02" rx="48.13" ry="2.95"/><ellipse class="cls-42" cx="231.52" cy="95.02" rx="41.4" ry="16.36"/><ellipse class="cls-43" cx="231.52" cy="95.02" rx="41.4" ry="1.02"/><ellipse class="cls-44" cx="155.49" cy="122.22" rx="48.13" ry="2.95"/><ellipse class="cls-45" cx="155.49" cy="122.22" rx="41.4" ry="16.36"/><ellipse class="cls-46" cx="155.49" cy="122.22" rx="41.4" ry="1.02"/><ellipse class="cls-47" cx="334.81" cy="78.13" rx="86" ry="5.27"/><ellipse class="cls-48" cx="334.81" cy="78.13" rx="73.98" ry="29.23"/><ellipse class="cls-49" cx="334.81" cy="78.13" rx="73.98" ry="1.83"/><ellipse class="cls-50" cx="86" cy="29.23" rx="86" ry="5.27"/><ellipse class="cls-51" cx="86" cy="29.23" rx="73.98" ry="29.23"/><ellipse class="cls-52" cx="86" cy="29.23" rx="73.98" ry="1.83"/><circle class="cls-53" cx="399.83" cy="28.59" r="9.89" transform="translate(3.7 89.91) rotate(-12.89)"/><ellipse class="cls-54" cx="399.83" cy="28.59" rx="20.99" ry="2.05" transform="translate(23.02 165.32) rotate(-24.03)"/><ellipse class="cls-55" cx="399.83" cy="28.59" rx="2.05" ry="20.99" transform="translate(23.02 165.32) rotate(-24.03)"/><circle class="cls-56" cx="224.48" cy="28.75" r="9.89" transform="translate(-0.76 50.8) rotate(-12.89)"/><ellipse class="cls-57" cx="224.48" cy="28.75" rx="20.99" ry="2.05" transform="translate(7.75 93.92) rotate(-24.03)"/><ellipse class="cls-58" cx="224.48" cy="28.75" rx="2.05" ry="20.99" transform="translate(7.75 93.92) rotate(-24.03)"/></g></g></g></svg>